<svg xmlns="http://www.w3.org/2000/svg" fill="none" viewBox="0 0 218 90"><g clip-path="url(#clip0)"><path fill="#000" d="M70.53 6.7c4.18-1.4 4.53-6.7.35-6.7-1.12 0-2.53.82-3.47 2.47l-5.65 9.7c-.23.42-.51.82-.82 1.18-1.47-2-1-5 1-6.3l-.76-1c-4.42 2.83-3.12 10.9 4.23 10.9 6.24-.07 9.12-7.54 5.12-10.24zm-5.18 8.6a6 6 0 01-3-.71c.4-.46.75-.95 1.06-1.47L66.94 7h.59c4.82 1.06 2.88 8.3-2.18 8.3zm2.24-9.54l1.7-2.88c1.53-2.64 3.47-1.06 2.42.88-1.06 1.95-2 1.95-4.12 2z"/><path fill="#000" d="M152.47 11.18l-.12.17a9.82 9.82 0 01-3.82 2.94c.35-.53.59-1.11.88-1.58l2.3-3.95c1.94-3.29-1.24-4.4-3.36-2.52l.41-.71h-2.11l-3.24 5.65-.12.17a4.53 4.53 0 01-3.17 1.53l2-3.4c1.3-2.19.12-4.3-1.88-4.3s-2.89.64-4.06 2.76l-1 1.77-.94 1.47-.12.11c-1.53 1.77-3 3.12-3.88 3.12-.89 0-.71-.3-.24-1.12L133 8c.88-1.59.06-2.76-1.12-2.76-1.17 0-1.88.52-2.94 1.58L132.3 1h-2.11l-5.83 10.18-.11.11c-.74.88-1.6 1.65-2.53 2.3.64-2 .53-5.06 1.82-7.7l-1.59-.83c-.88 1.18-2.76 3.94-4.65 6.12l-.11.17c-1.53 1.77-3 3.12-3.89 3.12-.88 0-.7-.3-.23-1.12l2.12-3.64c.7-1.3.35-2-.3-2.83l-1.17-1.4a.82.82 0 01-.12-.99c.06-.1.14-.19.23-.25l-1.05-1.18c-1.18 1.06-1.3 2.23-.53 3.23l.11.18c-.94 1.3-2.17 3.06-3.53 4.7l-.11.18c-1.53 1.77-3.47 3.12-4.89 3.12-1.4 0-2.05-.82-1.05-2.47l.17-.35c1.35.59 3.88.3 5.47-2.41l.3-.53c1.11-1.95.06-3.36-1.65-3.36a4.41 4.41 0 00-3.94 2.41L101 11.18l-.12.11a4.47 4.47 0 01-3.17 1.53l2-3.4c.45-.74.71-1.56.76-2.42a1.78 1.78 0 00-1.14-1.77 1.76 1.76 0 00-.74-.11c-.49.01-.96.18-1.35.47L99.88 1h-2.12l-5.88 10.18-.12.11c-1.52 1.77-3 3.12-3.88 3.12-.88 0-.7-.3-.23-1.12l2.11-3.64c.71-1.3.36-2-.29-2.83l-1.18-1.4a.82.82 0 01.12-1.24L87.35 3c-1.17 1.06-1.3 2.24-.53 3.24l.18.23c-.94 1.3-2.18 3.06-3.53 4.7l-.12.18c-1.53 1.77-3 3.12-3.88 3.12-.88 0-.7-.3-.23-1.12l3.35-5.94H81.4a2.18 2.18 0 00-2.35-2.12c-1.12 0-2.7.89-3.59 2.42l-2.94 5.05c-.88 1.53-.24 3 1.41 3s1.88-.52 2.88-1.35c.12.83.77 1.35 1.83 1.35s3.7-1.82 5.47-3.88c1-1.17 1.76-2.23 3.47-4.47l.3.35A1 1 0 0188 8.94l-2.24 3.82c-.88 1.53-.23 3 1.42 3 1.64 0 2.53-.88 3.82-2.17 0 1.41 1.06 2.23 2.41 2.23A4.65 4.65 0 0097 13.88h.47a6.12 6.12 0 002.77-.82c-.12 1.53 1 2.65 2.82 2.65 1.82 0 4.7-1.83 6.47-3.89 1.76-2.06 1.76-2.23 3.47-4.47l.3.36a1 1 0 01.11 1.17l-2.23 3.83c-.89 1.53-.24 3 1.4 3 1.66 0 3.71-1.83 5.48-3.89 1.17-1.35 2.23-2.82 3-3.82-.83 2.18-.35 6.06-2.35 6.06a1.18 1.18 0 01-1-.77l-1.3.71a2.3 2.3 0 002.3 1.7h.64a7.35 7.35 0 003.24-1.4l-.7 1.23H124l3.18-5.53c3.23-4.06 4.64-3.53 3.76-2l-2.7 4.7c-.89 1.54-.24 3 1.4 3 1.65 0 2.6-.94 3.89-2.17 0 2.65 3.7 3.18 5.94.35h.47c.77-.02 1.53-.2 2.24-.53l-3.83 6.6h2.12l6.24-10.9c2.35-3.17 3.82-2 3.23-1.05l-3.18 5.47a.82.82 0 01-1.52 0l-1.18.59a2.3 2.3 0 002.3 1.7h.11c3.06-.05 5.06-1.88 6.77-3.88a1.28 1.28 0 00-.77-.7zm-47.65-2.94c1.24-2.06 3.36-1.71 2.12.47l-.3.53c-1 1.7-2.35 1.64-3.11 1.4l1.3-2.4zM78 11.53c-1.3 2-2.53 2.94-3.35 2.94-.83 0-.7-.3-.24-1.12l2.94-5.11c1.12-1.95 3.36-1.48 2.36.47L78 11.53zm15.76 2.88a.77.77 0 01-.82-.82c.03-.38.15-.74.35-1.06l.77-1.3a3.06 3.06 0 001.35 2.18 1.94 1.94 0 01-1.65.94v.06zm2.18-2.06a2.23 2.23 0 01-.88-1.88c0-1.47 1.47-3.94 2.65-3.94a.82.82 0 01.76.88c-.03.44-.17.87-.41 1.24l-2.12 3.7zm43-1.06h-.12a1.24 1.24 0 00-1.23 1.24c0 .25.05.5.17.7-1 1.71-3.35 1.36-2.11-.82l1.59-2.76 1-1.7c1.47-2.48 3.47-1.54 2.23.64l-1.53 2.7zM.02 43.08l3.37-3.37 3.36 3.36-3.37 3.37-3.36-3.36zm207 0l3.37-3.37 3.36 3.36-3.37 3.37-3.36-3.36z"/><path fill="#9D9D9D" d="M27.53 43.24h1.23v-4.89h1.95v-1.23h-3.18v6.12zm8.76.88v-7.47a2.7 2.7 0 00-1.53-2.41c.2.36.3.76.3 1.17v7.47a2.65 2.65 0 01-1 2.06 3.06 3.06 0 011 2.18v8.3a2.7 2.7 0 01-2.7 2.7H24.4v1.23h9.18a2.7 2.7 0 002.7-2.7v-8.3a3.06 3.06 0 00-1-2.17 2.65 2.65 0 001-2.06z"/><path fill="#9D9D9D" d="M27.53 53.7h1.23v-4.88h1.95V47.6h-3.18v6.12zm19.41 0h1.24V38.36h1.94v-1.23h-3.18V53.7z"/><path fill="#9D9D9D" d="M54.18 34.3c.18.36.28.76.3 1.17v20a2.7 2.7 0 01-2.72 2.7H45.3c-.4 0-.8-.1-1.17-.29a2.7 2.7 0 002.4 1.53H53a2.7 2.7 0 002.7-2.7v-20a2.7 2.7 0 00-1.52-2.42zm12.17 8.94h1.24v-4.89h1.94v-1.23h-3.18v6.12zm7.24 5.29a2.65 2.65 0 001.53-2.41v-9.47a2.7 2.7 0 00-1.53-2.41c.18.36.28.76.3 1.17v9.53a2.65 2.65 0 01-1.54 2.41l1.83 10.83h-3.36l.24 1.23h4.35L73.6 48.53zM68 47.59h-1.65v10.53h-3.11v1.23h4.35V48.82h.65L68 47.6zm17.18 6.12h1.23V38.35h1.94v-1.23h-3.17V53.7z"/><path fill="#9D9D9D" d="M92.47 34.3c.19.36.3.76.3 1.17v20a2.7 2.7 0 01-2.71 2.7h-6.53c-.41 0-.81-.1-1.18-.29a2.7 2.7 0 002.41 1.53h6.53a2.7 2.7 0 002.71-2.7v-20a2.7 2.7 0 00-1.53-2.42zm12.18 19.4h1.17V38.36h1.95v-1.23h-3.12V53.7z"/><path fill="#9D9D9D" d="M111.88 34.3c.19.36.3.76.3 1.17v20a2.7 2.7 0 01-2.7 2.7h-7.95v1.24h9.18a2.7 2.7 0 002.7-2.7v-20a2.71 2.71 0 00-1.53-2.42zm12.36-.3v24.12h-3.12v1.23h4.35V34h-1.23zm19.35 0v24.12h-3.47l.35 1.23h4.35V34h-1.23zm-7.53 13v11.12h-3.12v1.23h4.35V51.3L136.06 47zm19 1.82h3.59V47.6h-4.83c-.4 0-.8-.1-1.17-.3a2.65 2.65 0 002.4 1.53zm1.65 1.6l-1.24.29v3h1.24v-3.3zm6.05-16.13c.2.37.3.77.3 1.18v5.12l-3.18.7v1.53l4.41-1v-5.17a2.7 2.7 0 00-1.53-2.36z"/><path fill="#9D9D9D" d="M162.76 44.76c.2.37.3.77.3 1.18v9.47a2.7 2.7 0 01-2.7 2.7h-6.54c-.4 0-.8-.1-1.17-.29a2.7 2.7 0 002.4 1.53h6.54a2.7 2.7 0 002.7-2.7v-9.53a2.7 2.7 0 00-1.53-2.36zm-7.29-7.64v6.12h1.24v-4.89h1.94v-1.23h-3.18zm19.82 10.47h-.4v10.53h-3.13v1.23h4.36v-9.11l-.83-2.65zM184.24 34h-1.65l-3.65 11.41 4.06 12.7h-3.53l.3 1.07.05.17h4.42l-4.06-12.7L184.24 34zm10.17 0v24.12h-3.12v1.23h4.36V34h-1.24z"/><path fill="url(#paint0_linear)" d="M98.76 72.82h.83c3.17.18 5.7 1 7.3 2.77 1.58-1.77 4.11-2.65 7.34-2.77h.77c7.12.47 10.35 5.6 16.06 7.77.88.4 1.85.6 2.82.59 1.47-.18 2.41-1.65 2.18-3.3-.24-1.64-1.94-3.3-3.88-2.47-.26.12-.5.28-.7.47a.65.65 0 01-.72.36c-.35-.3 0-.71.18-1a3.54 3.54 0 013.59-1.77c3.3.24 6.3 3.12 5.76 7.53-1.05 6.65-7.05 8.41-14.11 9h-2.3a28.41 28.41 0 01-16.94-6.47 28.88 28.88 0 01-17 6.47h-2.3c-7.17-.65-13.17-2.35-14.23-9.12-.41-4.82 2.47-7.17 5.77-7.4a3.59 3.59 0 013.58 1.76c.18.29.48.7.18 1a.76.76 0 01-.7-.36 2.35 2.35 0 00-1.65-.7c-2.3-.06-3.59 2.47-2.65 4.47a2.53 2.53 0 002 1.47c.97 0 1.94-.2 2.82-.6a14 14 0 002.3-1.1c4.3-2.48 7.65-6 13.7-6.6z"/><path fill="#636466" d="M212.7 48.8l3.38-3.37 1.22 1.23-3.36 3.37-1.23-1.23zm-207 .05l3.36-3.37 1.23 1.22-3.37 3.37-1.23-1.22z"/><path fill="#000" d="M32.7 40.59a2.65 2.65 0 01-.94 2.06 3.06 3.06 0 011 2.17v8.3a2.7 2.7 0 01-2.7 2.7h-9.18v-25.4h9.18a2.7 2.7 0 012.7 2.7v7.47h-.05zm-4.4-5.83h-3.12v6.12h3.17v-6.12h-.06zm0 10.48h-3.12v6.17h3.17v-6.17h-.06zM49.46 30.4a2.7 2.7 0 012.7 2.7v20a2.7 2.7 0 01-2.7 2.71h-6.53a2.7 2.7 0 01-2.7-2.7v-20a2.65 2.65 0 012.7-2.7h6.53zm-1.7 4.35h-3.12v16.65h3.17V34.76h-.06zm19.7 21l-1.76-10.52h-1.65v10.52H59.7V30.41h9.17a2.65 2.65 0 012.65 2.7v9.48A2.65 2.65 0 0170 45l1.82 10.82h-4.35v-.06zm-.3-21H64v6.12h3.18v-6.12zm20.54-4.35a2.7 2.7 0 012.7 2.7v20a2.7 2.7 0 01-2.7 2.71h-6.47a2.7 2.7 0 01-2.71-2.7v-20a2.65 2.65 0 012.7-2.7h6.53-.05zM86 34.76h-3.18v16.65H86V34.76zm21.18-4.35a2.7 2.7 0 012.7 2.7v20a2.7 2.7 0 01-2.7 2.71h-9.24v-25.4h9.24zm-1.7 4.35h-3.19v16.65h3.18V34.76zm12.1-4.35h4.36v25.35h-4.35V30.41zm23.71 0v25.35h-4.35l-3.18-11.05v11.05h-4.35V30.41h4.3l3.17 10.41v-10.4h4.41zM158 40.88a2.7 2.7 0 012.7 2.7v9.54a2.7 2.7 0 01-2.7 2.7h-6.53a2.7 2.7 0 01-2.7-2.7v-5.24l4.35-1v4.53h3.17v-6.17h-4.82a2.65 2.65 0 01-2.7-2.71v-9.41a2.65 2.65 0 012.7-2.7H158a2.7 2.7 0 012.7 2.7v5.12l-4.4 1v-4.48h-3.18v6.12H158zm18.59 2.18l4.06 12.7h-4.41v-.11L173 45.24h-.41v10.52h-4.35V30.41h4.35v10.47h.35l3.35-10.47h4.42l-4.12 12.65zm11.17-12.65h4.36v25.35h-4.36V30.41z"/></g><defs><linearGradient id="paint0_linear" x1="106.86" x2="106.86" y1="72.82" y2="90" gradientUnits="userSpaceOnUse"><stop stop-color="#464646"/><stop offset="1"/></linearGradient><clipPath id="clip0"><path fill="#fff" d="M0 0h217.35v90H0z"/></clipPath></defs></svg>