<svg xmlns="http://www.w3.org/2000/svg" fill="none" viewBox="0 0 184 90"><g clip-path="url(#clip0)"><path fill="#000" d="M177.32 38.87a48.25 48.25 0 01-5.77 3.44c.08-2.14-.17-4.28-.73-6.35l.19-1.24c.47-3.71.81-8.81-2.48-11.41-.4-.32-1.55 0-2.38.33-.19-.18-.4-.35-.61-.5-.1-.3-.2-.6-.29-.92 0-.15-.21-.24-.44-.26.35-.47.32-1.02-.53-1.35-.47-.19-.94-.36-1.4-.5-.1-.1-.17-.13-.22-.08a27.5 27.5 0 00-3.54-.88c.18-.44.41-.85.69-1.24.16-.2.34-.37.53-.54l.23-.21.09-.08.1-.07c.47-.36 1.05-1.07.27-1.49a2.6 2.6 0 00-2.48.3 8.14 8.14 0 00-2.58 2.92c-2.5-.19-5.02-.22-7.53-.1.08-.09.14-.2.18-.3.22-.73-1.13-.65-1.48-.61l-5.8.74c1.7-4.67 3.8-10.62 1.23-15.18C141.1.7 137.74.1 135.04 0c-3.02-.1-6.01.6-8.67 2.03-5.89 3.24-8.8 9.54-10.16 16.26a2.28 2.28 0 00-3.27.59c-.15.4-.28.79-.4 1.23-.21.23-.36.5-.43.8v.2h-.25l.08-.38c.17-.1.29-.27.35-.45a89.8 89.8 0 012.4-8.45c.34-.94-3.1-.5-3.46.54a62.68 62.68 0 00-1.38 4.48c-.22.08-.4.22-.53.4v.13c-.17-.13-.38-.2-.59-.22v-1.24c0-.53-3.49 0-3.49.94v1.95c-.2.1-.4.2-.58.34l-.23.2a.46.46 0 00-.15.3l-.19.15-.06.1a.38.38 0 000 .57c.27.17.6.24.92.2h.18v.58h-.83l-.5-.06c0-.48-.85-.56-1.68-.4v-.2c-.12-.74-.2-1.47-.28-2.2.3-.1.58-.23.84-.4.2-.12.4-.26.4-.52v-.24c0-.22-.5-.25-.61-.26a3.47 3.47 0 00-.73 0c-.12-1.65-.12-3.27-.12-4.89 0-1.04-3.5-.38-3.5.94-.03 2.2.05 4.41.24 6.61h-.33v-1.88c0-1.24-1.61-1.51-2.67-1a1.24 1.24 0 00.46-1.24 37.47 37.47 0 01-1.23-5.31c-.24-1.72-3.72-.84-3.5.94.29 1.8.7 3.57 1.24 5.31.3 1.03 1.66 1.1 2.6.63a1.24 1.24 0 00-.46.94v.78c-.3-.14-.62-.2-.95-.2-1.31 0-2.07 1.1-1.73 1.84l-.6-.1c-.52-1.54-.82-3.13-.89-4.74 0-1.17-1.57-1.24-2.6-.83a.7.7 0 000-.21c-.44-1.01-.76-2.06-.97-3.14-.41-1.67-3.92-.74-3.5.95.18.79.4 1.57.65 2.35h-.08c-.37.1-.73.26-1.05.48-1.03.1-2.26.7-2.16 1.5.07.6.16 1.24.26 1.77l-2.03.32a14.7 14.7 0 01-.77-3.02c-.16-1.14-1.93-1.05-2.89-.32a27.9 27.9 0 00-3.86-7.13c-3.36-4.33-8.9-5.84-14.03-4.77-2.37.4-4.54 1.55-6.2 3.28a7.35 7.35 0 00-1.44 5.94c.24 2.57.9 5.08 1.95 7.43-.4-.02-.8.04-1.17.17-.35.15-.7.31-1.03.49-2.4 0-4.8 0-7.18-.09-5.17-.23-10.27-1.06-15.47-.92-1.14 0-1.9.9-1.8 1.56a5.34 5.34 0 00-2.66 2.84 66.83 66.83 0 00-6.6-3.97c-.85-.44-4.08.87-2.83 1.5a65.58 65.58 0 016.54 4 2.71 2.71 0 002.27-.1l.2-.1c-.33 1.86-.23 3.76.3 5.56.04.13.1.25.21.34-.02.4-.02.82 0 1.23v.22a1.49 1.49 0 00-.94 1.04 46.27 46.27 0 00-.38 5.23 1.35 1.35 0 00-.6 1 61.8 61.8 0 00.58 12.37 90 90 0 001.45 9.9c.08.51.15 1.03.21 1.55a12 12 0 00-.3 4.3c-1.08.22-2.14 1.08-1.52 2.01.84 1.3 1.94 2.42 3.23 3.28a2.86 2.86 0 00-2.31.68c-1.02 1-2.12 1.9-3.13 2.9-.54.52-.39 1.15.36 1.34a2.85 2.85 0 002.47-.67c1.02-1 2.13-1.9 3.13-2.9a.8.8 0 00.25-.9c3.9 2.06 8.89 1.45 13.63 1.09a42.73 42.73 0 00-2.69 6.19c-.32.89 3.1.45 3.47-.55.7-2.09 1.57-4.12 2.6-6.06 4.63.14 9.26.14 13.87.06.24.25.58.4.93.42 4.02.28 8.06-.01 12-.87 5.92-.28 11.85-.65 17.78-1 9.32-.24 18.64-.43 27.97-.4l.38.4a1.62 1.62 0 001.24.4h.24c.88 0 1.77.12 2.65.2.23.03.47.03.7 0l2.9.25c.26.27.61.43.98.45 4.7.3 9.42.64 14.14.87a1.23 1.23 0 001.01.42c8.75.07 18.92 3.46 26.69-2.16.62-.44.33-1.09-.32-1.24h-.41a75.3 75.3 0 003.64-10.58 1.34 1.34 0 00.8-1.06c.08-1.51.23-3.02.46-4.5.2-1.1.39-2.2.55-3.3.48-2.69 1-5.41 1.23-8.1a62.05 62.05 0 008.3-4.72c1.93-1.38-.98-2.33-2.28-1.4zM108.83 20.3l-.16.15.29-1.15h.08l-.2 1z"/><path fill="#000" d="M78.42 15.63c.16.25.7.28.93.28.47 0 .94-.1 1.37-.28.5-.2 1.36-.69.95-1.32-.4-.63-.75-1.47-1.23-2.17-.16-.24-.7-.27-.93-.27-.47 0-.93.1-1.36.29-.5.2-1.36.69-.96 1.32.41.63.78 1.45 1.23 2.15zM25.71 13.5c.28.8 1.38.8 2.05.62.67-.18 1.72-.76 1.44-1.56-.2-.8-.58-1.55-1.1-2.2a2.12 2.12 0 00-2.35-.19c-.5.24-1.46 1.04-.85 1.68.4.47.68 1.04.81 1.65zM38.07 17.2c1.04 0 3.8-1.6 1.47-1.6-1.05.02-3.81 1.6-1.47 1.6zM151.82 15.19c.43.07.88.05 1.3-.08.43-.1.83-.3 1.16-.6.49-.41.9-.9 1.24-1.45.13-.25.21-.5 0-.73-.26-.22-.6-.33-.94-.31-.47 0-.94.08-1.37.27-.38.13-.7.36-.94.68-.13.23-.27.44-.44.63l-.24.25c-.2.2-.44.45-.35.76.09.3.32.53.58.58zM168.28 21.9a4.48 4.48 0 002.34-.82 26.22 26.22 0 004.48-4.5c.36-.49-1.23-.3-1.38-.3-.77.07-1.5.4-2.06.94a24.4 24.4 0 01-4.2 4.17c-.6.5.56.53.82.5zM181.75 55.42h-6.03a1.98 1.98 0 00-1.93 1.4c-.11.92.93 1.15 1.61 1.15h6.03a2 2 0 001.88-1.42c.16-.85-.88-1.13-1.56-1.13zM70.67 75.23c-.62.1-1.74.37-2.03 1.03a42.86 42.86 0 00-1.68 4.83c-.26.9 3.18.4 3.46-.56a42.88 42.88 0 011.69-4.83c.3-.64-1.18-.5-1.44-.47zM76.36 78.44c-.86.03-1.7.26-2.47.67-.17.1-.42.25-.42.48v.43a.93.93 0 01-.15.36c-.07.1-.14.23 0 .31.28.11.58.14.88.08.48-.05.96-.15 1.42-.31.36-.1.7-.27.98-.51.17-.17.3-.38.35-.62a3.3 3.3 0 000-.66c.02-.22-.5-.22-.59-.23zM144.5 83c-.43-.86-3.7.4-3.49.93 1.05 2.03 2.4 3.87 3.62 5.8.54.85 3.71-.51 3.49-.94-1.21-1.93-2.56-3.77-3.62-5.8zM149.57 80.1c-.36-.73-1.33-.7-2-.51-.44.11-1.85.74-1.5 1.45l1.46 2.9c.35.73 1.32.69 2 .5.43-.1 1.84-.74 1.49-1.45l-1.45-2.9zM7.14 53.36c-1.85.45-3.72.7-5.55 1.24-.67.18-1.66.8-1.44 1.63.23.84 1.4.88 2.06.7 1.83-.5 3.71-.77 5.54-1.24.67-.16 1.66-.8 1.44-1.64-.22-.82-1.39-.82-2.05-.69z"/><path fill="#fff" d="M54.27 49.65c-.1-3.36-.63-6.69-.6-10.04 0-2.71.49-5.5-.44-8.1 0-.3.12-.6.17-.9.25-1.31-4.08-.62-4.76.58-.43.35-.65.77-.47 1.24l.12.32a97.8 97.8 0 01-3.28 11.76c-.5 1.49-1.11 2.93-1.62 4.42a44.3 44.3 0 01-2.05-4.22c-1.73-4.28-3.27-8.67-5.36-12.75.23-1.9-4-1.7-4.84 0a10.8 10.8 0 00-.55 6.51c.33 2.53.49 5.08.47 7.63 0 4.95.45 9.9.52 14.85a1.24 1.24 0 00-.11 1.72c.21.26.45.48.72.68 1.12.9 4.37.14 4.37-1.58 0-5.15-.39-10.29-.52-15.44v-1.5l.2.54c.77 2 1.68 3.95 2.73 5.81a26.71 26.71 0 012.25 5.85.97.97 0 00-.28.87c0 .23.09.36.3.45.8.68 2.31.35 3.14 0 .36-.15.7-.33 1.03-.53.43-.26 1.1-.86.9-1.45l-.11-.35c.55-1.61.96-3.27 1.24-4.95.39-1.76.93-3.49 1.62-5.16l.2 2.31c.26 3.2 0 6.34 0 9.54-.02 1.03.07 2.05.27 3.07.19.77.3 1.55.35 2.35a.97.97 0 00.48 1.8 4.15 4.15 0 003.45-.94c1.5-1.38.8-3.55.45-5.3-.58-2.84.1-6.12.01-9.1zM64.72 50.49c-.09-2.48-.96-4.83-.97-7.34a60.8 60.8 0 00-.2-8.6c-.13-.9-5.06.12-4.95 1.3.28 2.64.35 5.3.2 7.94.12 2.5.42 4.98.92 7.43.33 2.56-.11 5.2.18 7.76.14 1.24.94 3.43.11 4.47-.52.67 1.84.42 1.95.4a4.83 4.83 0 002.87-1.23c.82-1.03.25-3.03.06-4.2a68.63 68.63 0 01-.17-7.93zM85.12 46.34c-2.58-3.48-7.36-.97-10.7-1.92-1.72-.5-1.74-2.83-1.73-4.24a43.88 43.88 0 00-.35-5.18 4.26 4.26 0 01.93-3.62 5.4 5.4 0 011.02-.42c.44-.07.88-.12 1.33-.13 1.93-.08 5.76.29 5.03 3.11-.34 1.24 4.5.54 4.84-.8 1.5-5.74-9.1-4.63-12.1-3.84-2.76.73-5.8 2.3-5.96 5.5-.08 1.52.33 2.97.4 4.48.08 1.73-.24 3.46.37 5.13 1.34 3.72 6.89 1.97 9.71 2.18 4.8.36 3.37 6.83 3.43 9.9 0 1.61 1.47 4.29.26 5.63-.74.83-2.47.88-3.49.96-1.01.07-2.75.4-3.43-.57-1.24-1.77.11-4.74-.15-6.77-.15-1.15-5.07-.13-4.95 1.31.44 3.28-1.74 7.67 3 8.23 3.17.28 6.36-.12 9.37-1.16 1.49-.45 2.87-1.22 4.04-2.24 1.24-1.18.87-2.94.52-4.43-.78-3.7.98-7.94-1.4-11.1zM106.75 46.1c-.15-4.7-.86-9.37-.88-14.1 0-2.48-4.95-1.64-4.95.43 0 4.5.62 8.95.86 13.44v.28c-2.48 0-4.87.22-7.3.3.24-5.79-.77-11.52-.55-17.32 0-.73-4.84-.12-4.95 1.3-.21 5.6.73 11.15.57 16.73-.08 2.66-.31 5.32-.32 8 .03 1.36.17 2.72.4 4.07.36 1.35.43 2.76.23 4.15-.3.96 4.44.35 4.82-.87.68-2.22-.27-5.05-.5-7.3-.16-2.18-.12-4.37.1-6.55 2.52-.26 5.06-.26 7.58 0 .11 1.72.24 3.44.4 5.16.14 1.45.22 2.88.25 4.34.14 1.45.05 2.9-.28 4.32-.96 2.58 3.94 2.37 4.66.46.88-2.34.63-5.25.48-7.7-.11-3.04-.52-6.07-.62-9.13zM127.9 51.69a92.3 92.3 0 00-4.51-9.74c1.24-2.48 2.47-4.87 3.71-7.35 1.04-2.26 1.8-4.77 3.85-6.37.72-.55.68-1.11-.32-1.23a5.56 5.56 0 00-3.45.92 13.42 13.42 0 00-4 5.34 207.37 207.37 0 01-3.69 7.59l-.28.55a1.44 1.44 0 00-.8 1.59c-.99 1.95-1.99 3.9-3.12 5.75-.37-6.9-1.23-13.8-1.43-20.73 0-1.58-4.95-.6-4.95 1.31.3 8.58 1.52 17.15 1.6 25.71v.06c-.37.39-.23.62.07.76 0 2.19-.08 4.37-.26 6.56-.6.93.58 1.42 1.35 1.42h.12c.93 0 3.28-.43 3.4-1.7.22-2.62.31-5.24.28-7.87a39.26 39.26 0 005.06-7.04 36.76 36.76 0 012.47 5.72c1.08 3.43 2.88 6.57 3.92 10.01.68 2.26 5.57.93 4.95-1.3-1.1-3.39-2.8-6.57-3.96-9.96zM157.32 45.9c-.26-1.04-1.71-1.07-2.84-.97V43.7c-.16-3.33-.2-6.72-.5-10.02-.25-3.07-1.97-4.17-4.94-4.06-3.2.09-6.35.68-9.35 1.76a8.74 8.74 0 00-5.7 7.09c-.69 3.71.3 7.76.48 11.55.2 4.38.08 8.76.07 13.13 0 .72 4.95 0 4.95-1.31v-10.4c0-1.03-.06-2.04-.12-3.06 1.7-.74 4.6 0 6.31.18 1.36.02 2.72-.1 4.05-.36 0 2.88.14 5.79.26 8.66 0 1.47.6 4.4-.45 5.63-.54.65 1.85.44 1.95.41a4.95 4.95 0 002.87-1.3c1.24-1.4.57-4.73.5-6.4-.1-2.39-.12-4.77-.17-7.16 1.27-.18 2.85-1.07 2.63-2.13zm-18.26-.19c-.13-1.56-.27-3.1-.38-4.68-.2-2.9.14-6.97 2.85-8.74a8.93 8.93 0 012.95-.54 4.58 4.58 0 013.53.23c1.5 1 1.14 4.57 1.14 6.08 0 2.48.26 4.95.38 7.5-.7.08-1.4.11-2.1.1-2.9-.06-5.72-.52-8.42.05h.05zM60.48 31.17c.66-.06 1.3-.29 1.85-.66l.32-.27c.64-.42 1.24-1.03.9-1.7a9.64 9.64 0 01-.52-4.27c0-1.23-1.23-1.56-2.22-1.46-1 .1-2.7.7-2.72 1.95a19.9 19.9 0 00.2 3.7c-.05.15-.1.3-.12.45a.87.87 0 00.17.75v.58c.09.28.28.51.53.66.5.25 1.06.34 1.61.27z"/></g><defs><clipPath id="clip0"><path fill="#fff" d="M.12 0h183.25v90H.12z"/></clipPath></defs></svg>