<svg fill="none" xmlns="http://www.w3.org/2000/svg" viewBox="0 0 327 90"><g clip-path="url(#clip0)" fill="#000"><path d="M160.59 41.6c0-1.58 1.29-2.87 2.8-2.87h16c11.34 0 18.8 6.02 18.8 15.93v.14c0 10.83-9.04 16.43-19.73 16.43h-12.2v15.22c0 1.58-1.3 2.87-2.88 2.87-1.5 0-2.8-1.3-2.8-2.87V41.6zm18.08 24.47c8.33 0 13.78-4.45 13.78-11.05v-.14c0-7.18-5.38-10.91-13.49-10.91h-12.7v22.1h12.41zM209.02 41.24a2.86 2.86 0 012.8-2.87c1.58 0 2.87 1.29 2.87 2.87v45.21a2.88 2.88 0 01-2.87 2.87c-1.5 0-2.8-1.29-2.8-2.87V41.24zM229.4 41.31c0-1.5 1.3-2.8 2.8-2.8h.79c1.3 0 2.08.65 2.87 1.65l30.5 38.9v-37.9a2.8 2.8 0 012.8-2.8c1.5 0 2.73 1.3 2.73 2.8v45.37c0 1.5-1.07 2.65-2.58 2.65h-.29c-1.22 0-2.08-.72-2.94-1.72l-31.15-39.83v38.9a2.8 2.8 0 01-2.8 2.8c-1.5 0-2.73-1.3-2.73-2.8V41.3zM286.08 41.24c0-1.58 1.3-2.87 2.8-2.87 1.58 0 2.87 1.29 2.87 2.87v27.49l28.64-29.36c.65-.57 1.3-1 2.23-1 1.5 0 2.73 1.36 2.73 2.8 0 .79-.37 1.43-.94 2l-17.8 17.66 19.1 23.54c.5.65.78 1.22.78 2.09 0 1.5-1.29 2.87-2.86 2.87-1.08 0-1.8-.58-2.3-1.3L302.6 64.71l-10.84 10.84v10.9a2.88 2.88 0 01-2.87 2.88c-1.5 0-2.8-1.3-2.8-2.87V41.24zM219.93 22.01a8.08 8.08 0 01-8.07-8.08 8.08 8.08 0 01-8.08 8.08 8.08 8.08 0 018.08 8.08 8.08 8.08 0 018.07-8.08zM96.43 43.05c.55 0 1.1.03 1.63.07a5.55 5.55 0 00-4.76-2.72 4.44 4.44 0 01-4.2-3.02 26.7 26.7 0 00-4.66 1.82c.14.04.27.09.42.09 2.46 0 4.46 2 4.46 4.46 0 .21-.03.42-.06.62a20.06 20.06 0 017.17-1.32z"/><path d="M135.15 62.45L123.6 14.83C122.81 9.59 117.83 0 104.44 0a3.34 3.34 0 100 6.69c10.83 0 12.43 8.31 12.57 9.23l10.63 43.92h-4.62a26.84 26.84 0 00-11.83-19c-2 .85-3.4 2.83-3.4 5.14 0 .2-.04.38-.06.57a20.14 20.14 0 018.53 19.98 20.12 20.12 0 11-39.66-6.69c.33-1.96.95-3.81 1.8-5.53a4.45 4.45 0 01-4.12-4.43c0-.42-.18-.8-.43-1.09a26.65 26.65 0 00-4 11.05h-4.06A26.84 26.84 0 0039.2 36.37a26.84 26.84 0 00-26.58 23.47H8l10.62-43.92C18.76 15 20.37 6.7 31.2 6.7a3.34 3.34 0 100-6.69C17.8 0 12.83 9.6 12.02 14.83L.5 62.45c-.6 2.47 1.18 4.07 3.18 4.07l.08.01h8.87c.18 1.4.48 2.76.87 4.08.13-.23.22-.5.22-.79a4.46 4.46 0 015.53-4.32c-.1-.76-.17-1.53-.17-2.32a20.12 20.12 0 118.13 16.13 4.41 4.41 0 01-2.9 1.1c-.92 0-1.67.75-1.67 1.67 0 .64-.14 1.25-.39 1.8A26.61 26.61 0 0039.21 90 26.84 26.84 0 0065.8 66.53h4.04A26.84 26.84 0 0096.43 90 26.84 26.84 0 00123 66.53h8.88l.08-.01c2 0 3.77-1.6 3.18-4.07z"/><path d="M113.36 35.94a10.03 10.03 0 01-10.03-10.02c0 5.53-4.5 10.02-10.03 10.02 5.54 0 10.03 4.5 10.03 10.03 0-5.54 4.48-10.03 10.03-10.03zM84.86 43.75a6.13 6.13 0 01-6.12-6.13 6.13 6.13 0 01-6.13 6.13 6.12 6.12 0 016.13 6.13 6.13 6.13 0 016.12-6.13zM24.3 75.95a6.13 6.13 0 01-6.13-6.13 6.13 6.13 0 01-6.13 6.13 6.12 6.12 0 016.13 6.13 6.13 6.13 0 016.13-6.13z"/></g><defs><clipPath id="clip0"><path fill="#fff" d="M.37 0h326.12v90H.37z"/></clipPath></defs></svg>